<svg width="16" height="16" viewBox="0 0 16 16" fill="none" xmlns="http://www.w3.org/2000/svg">
<path d="M9.28253 13.1149V14.6499C12.0075 14.1349 14.1325 12.0124 14.65 9.28491H13.1125C12.645 11.1599 11.1575 12.6474 9.28253 13.1149Z" fill="white"/>
<path d="M6.71754 2.8876V1.3501C3.99004 1.8651 1.86504 3.9901 1.35004 6.7176H2.88754C3.35504 4.8401 4.84004 3.3551 6.71754 2.8876Z" fill="white"/>
<path d="M2.88754 9.28491H1.35004C1.86754 12.0124 3.99254 14.1349 6.71754 14.6499V13.1124C4.84254 12.6449 3.35504 11.1599 2.88754 9.28491Z" fill="white"/>
<path d="M13.1125 6.7176H14.65C14.135 3.9901 12.01 1.8651 9.28253 1.3501V2.8851C11.16 3.3526 12.645 4.8401 13.1125 6.7176Z" fill="white"/>
<path d="M3.7625 8.00003C3.7625 7.56753 3.4125 7.21753 2.98 7.21753H0.97C0.5375 7.21753 0.1875 7.56753 0.1875 8.00003C0.1875 8.43253 0.5375 8.78503 0.97 8.78503H2.98C3.4125 8.78503 3.7625 8.43253 3.7625 8.00003Z" fill="white"/>
<path d="M15.0299 7.21753H13.0199C12.5874 7.21753 12.2374 7.56753 12.2374 8.00003C12.2374 8.43253 12.5874 8.78503 13.0199 8.78503H15.0299C15.4624 8.78503 15.8124 8.43253 15.8124 8.00003C15.8124 7.56753 15.4624 7.21753 15.0299 7.21753Z" fill="white"/>
<path d="M7.99997 3.765C8.43247 3.765 8.78247 3.4125 8.78247 2.98V0.9725C8.78247 0.5375 8.43247 0.1875 7.99997 0.1875C7.56747 0.1875 7.21747 0.5375 7.21747 0.9725V2.98C7.21747 3.4125 7.56747 3.765 7.99997 3.765Z" fill="white"/>
<path d="M7.99997 12.2375C7.56747 12.2375 7.21747 12.5875 7.21747 13.02V15.03C7.21747 15.4625 7.56747 15.8125 7.99997 15.8125C8.43247 15.8125 8.78247 15.4625 8.78247 15.03V13.02C8.78247 12.5875 8.43247 12.2375 7.99997 12.2375Z" fill="white"/>
<path d="M8.00067 10.3308C9.28753 10.3308 10.3307 9.28759 10.3307 8.00073C10.3307 6.71386 9.28753 5.67065 8.00067 5.67065C6.7138 5.67065 5.67059 6.71386 5.67059 8.00073C5.67059 9.28759 6.7138 10.3308 8.00067 10.3308Z" fill="white"/>
</svg>
