<svg width="22" height="24" viewBox="0 0 22 24" fill="none" xmlns="http://www.w3.org/2000/svg">
<path fill-rule="evenodd" clip-rule="evenodd" d="M15.6667 2.66671V1.50004C15.6667 0.858374 16.1917 0.333374 16.8333 0.333374C17.475 0.333374 18 0.858374 18 1.50004V2.66671H19.1667C20.45 2.66671 21.5 3.71671 21.5 5.00004V21.3334C21.5 22.6167 20.45 23.6667 19.1667 23.6667H2.83333C1.53833 23.6667 0.5 22.6167 0.5 21.3334L0.511667 5.00004C0.511667 3.71671 1.53833 2.66671 2.83333 2.66671H4V1.50004C4 0.858374 4.525 0.333374 5.16667 0.333374C5.80833 0.333374 6.33333 0.858374 6.33333 1.50004V2.66671H15.6667ZM12.1667 13.1667H15.6667C16.3083 13.1667 16.8333 13.6917 16.8333 14.3334V17.8334C16.8333 18.475 16.3083 19 15.6667 19H12.1667C11.525 19 11 18.475 11 17.8334V14.3334C11 13.6917 11.525 13.1667 12.1667 13.1667ZM19.1667 7.33337H2.83333V5.00004H19.1667V7.33337ZM4 21.3334H18C18.6417 21.3334 19.1667 20.8561 19.1667 20.2728V9.66671H2.83333V20.2728C2.83333 20.8561 3.35833 21.3334 4 21.3334Z" fill="#37474F"/>
</svg>
