<svg width="61" height="48" viewBox="0 0 61 48" fill="none" xmlns="http://www.w3.org/2000/svg">
<path d="M24.1668 38.8629C21.6328 38.8629 19.5931 40.9003 19.5931 43.4315C19.5931 45.9626 21.6328 48 24.1668 48C26.7008 48 28.7405 45.9626 28.7405 43.4315C28.7405 40.8997 26.7008 38.8629 24.1668 38.8629ZM24.1668 45.0365C23.2397 45.0365 22.4979 44.2956 22.4979 43.3695C22.4979 42.4434 23.2397 41.7025 24.1668 41.7025C25.094 41.7025 25.8357 42.4434 25.8357 43.3695C25.8357 44.2956 25.094 45.0365 24.1668 45.0365Z" fill="#F37A20"/>
<path d="M43.7606 38.8629C41.2266 38.8629 39.1869 40.9003 39.1869 43.4315C39.1869 45.9626 41.2266 48 43.7606 48C46.2946 48 48.3343 45.9626 48.3343 43.4315C48.3343 40.8997 46.2946 38.8629 43.7606 38.8629ZM43.7606 45.0365C42.8334 45.0365 42.0917 44.2956 42.0917 43.3695C42.0917 42.4434 42.8334 41.7025 43.7606 41.7025C44.6878 41.7025 45.4295 42.4434 45.4295 43.3695C45.4288 44.2956 44.6871 45.0365 43.7606 45.0365Z" fill="#F37A20"/>
<path d="M50.0049 23.3929C49.9654 23.3929 49.9279 23.3875 49.8884 23.3868L48.9517 26.082H17.6773L12.8561 12.5616H37.6922C37.6261 12.0434 37.5804 11.5184 37.5804 10.9818C37.5804 10.6188 37.6043 10.262 37.6349 9.90655H12.0523C11.9903 9.90655 11.9903 9.90655 11.9289 9.90655L9.95122 4.28865C9.51832 2.86885 8.15895 1.88078 6.67551 1.88078H1.48345C0.679685 1.88078 0 2.55969 0 3.36254C0 4.16539 0.679685 4.84431 1.48345 4.84431H6.67551C6.92297 4.84431 7.1084 4.96756 7.16976 5.21475L17.9861 35.5283C18.419 36.948 19.7784 37.9361 21.2618 37.9361H47.6536C48.4574 37.9361 49.1371 37.2572 49.1371 36.4544C49.1371 35.6515 48.4574 34.9726 47.6536 34.9726H21.2618C21.0143 34.9726 20.8289 34.8493 20.7676 34.6022L18.6044 28.5518H49.3232C50.2504 28.5518 51.0541 27.9962 51.3009 27.132L52.6937 23.0933C51.8272 23.2846 50.9294 23.3929 50.0049 23.3929Z" fill="#F37A20"/>
<path d="M39.0101 10.9825C39.0101 17.0205 43.9608 21.965 50.005 21.965C56.0493 21.965 61 17.0199 61 10.9825C61 4.94511 56.0499 0 50.005 0C43.9601 0 39.0101 4.94511 39.0101 10.9825ZM41.4589 10.9825C41.4589 6.29818 45.3147 2.446 50.005 2.446C54.6953 2.446 58.5512 6.2975 58.5512 10.9825C58.5512 15.6675 54.6947 19.519 50.005 19.519C45.3154 19.519 41.4589 15.7192 41.4589 10.9825Z" fill="#F37A20"/>
<path d="M56.6159 11.8588L53.9851 7.36248L51.3543 11.8588H53.0504C52.8166 13.4353 51.4136 14.6617 49.7181 14.6617C49.4264 14.6617 49.0753 14.6031 48.7828 14.5445L47.6136 16.2388C48.2565 16.5302 48.9587 16.6473 49.7181 16.6473C52.4662 16.6473 54.7459 14.5452 55.0384 11.8595L56.6159 11.8588Z" fill="#F37A20"/>
<path d="M43.2859 10.1068L45.9167 14.6031L48.5475 10.1068H46.8514C47.0852 8.53035 48.4882 7.30395 50.1837 7.30395C50.4754 7.30395 50.8265 7.36251 51.119 7.42107L52.2888 5.72685C51.646 5.4354 50.9438 5.31828 50.1843 5.31828C47.4363 5.31828 45.1566 7.42039 44.8641 10.1061L43.2859 10.1068Z" fill="#F37A20"/>
</svg>
