<svg width="16" height="18" viewBox="0 0 16 18" fill="none" xmlns="http://www.w3.org/2000/svg">
<path d="M1 4.2H2.55556M2.55556 4.2H15M2.55556 4.2V15.4C2.55556 15.8243 2.71944 16.2313 3.01117 16.5314C3.30289 16.8314 3.69855 17 4.11111 17H11.8889C12.3014 17 12.6971 16.8314 12.9888 16.5314C13.2806 16.2313 13.4444 15.8243 13.4444 15.4V4.2H2.55556ZM4.88889 4.2V2.6C4.88889 2.17565 5.05278 1.76869 5.3445 1.46863C5.63622 1.16857 6.03189 1 6.44444 1H9.55556C9.96811 1 10.3638 1.16857 10.6555 1.46863C10.9472 1.76869 11.1111 2.17565 11.1111 2.6V4.2M6.44444 8.2V13M9.55556 8.2V13" stroke="#D30000" stroke-width="2" stroke-linecap="round" stroke-linejoin="round"/>
</svg>
