<svg width="25" height="24" viewBox="0 0 25 24" fill="none" xmlns="http://www.w3.org/2000/svg">
<path d="M23.365 8.99972L16.1745 7.9547L12.9601 1.43819C12.8723 1.25978 12.7279 1.11534 12.5495 1.02755C12.102 0.806651 11.5583 0.990733 11.3345 1.43819L8.12019 7.9547L0.929663 8.99972C0.731421 9.02804 0.550171 9.1215 0.411401 9.2631C0.243636 9.43553 0.15119 9.66751 0.154377 9.90807C0.157563 10.1486 0.25612 10.3781 0.428393 10.546L5.63083 15.6182L4.40173 22.7804C4.37291 22.947 4.39135 23.1183 4.45495 23.275C4.51856 23.4317 4.62479 23.5674 4.76159 23.6667C4.8984 23.7661 5.06031 23.8251 5.22897 23.8372C5.39762 23.8492 5.56627 23.8137 5.7158 23.7348L12.1473 20.3533L18.5789 23.7348C18.7545 23.8282 18.9584 23.8594 19.1538 23.8254C19.6466 23.7404 19.9779 23.2732 19.8929 22.7804L18.6638 15.6182L23.8663 10.546C24.0079 10.4072 24.1013 10.226 24.1297 10.0277C24.2061 9.53214 23.8606 9.07335 23.365 8.99972Z" fill="#E8E8E8"/>
</svg>
