<svg width="20" height="22" viewBox="0 0 20 22" fill="none" xmlns="http://www.w3.org/2000/svg">
<path d="M7.72328 19.7989C9.02321 20.7772 10.6204 21.2778 12.2462 21.2166C13.872 21.1554 15.427 20.5361 16.6497 19.4628C16.6834 19.4338 16.7107 19.3981 16.7299 19.358C16.7491 19.3179 16.7598 19.2743 16.7613 19.2298C16.7628 19.1854 16.7551 19.1411 16.7386 19.0998C16.7222 19.0585 16.6974 19.0211 16.6658 18.9898L13.7516 16.0757C13.6497 15.9738 13.5282 15.8937 13.3944 15.8404C13.2606 15.787 13.1173 15.7614 12.9733 15.7652C12.8293 15.769 12.6875 15.8021 12.5567 15.8625C12.4259 15.9228 12.3087 16.0092 12.2124 16.1163L11.089 17.3651C9.47541 16.7998 8.00978 15.8785 6.80081 14.6695C5.59183 13.4605 4.67052 11.9949 4.10521 10.3813L5.35397 9.25787C5.46108 9.16152 5.54744 9.04437 5.6078 8.91356C5.66815 8.78275 5.70124 8.64102 5.70505 8.497C5.70885 8.35299 5.68329 8.20971 5.62992 8.07589C5.57655 7.94208 5.49649 7.82053 5.39462 7.71866L2.48916 4.81322C2.45679 4.78049 2.418 4.75481 2.37522 4.7378C2.33244 4.7208 2.28661 4.71283 2.24061 4.7144C2.1946 4.71597 2.14942 4.72705 2.1079 4.74693C2.06638 4.76682 2.02943 4.79508 1.99937 4.82995C0.925786 6.05045 0.305659 7.60368 0.243461 9.22799C0.181263 10.8523 0.680795 12.4484 1.65791 13.7474C3.40177 16.0252 5.44153 18.0603 7.72328 19.7989Z" fill="white"/>
<path d="M9.74112 10.6113H12.2171L14.0708 12.774C14.104 12.8127 14.1452 12.8438 14.1916 12.8651C14.2379 12.8865 14.2883 12.8975 14.3394 12.8975C14.3904 12.8975 14.4408 12.8865 14.4872 12.8651C14.5335 12.8438 14.5747 12.8127 14.6079 12.774L16.4616 10.6113H18.9376C19.219 10.6113 19.4889 10.4995 19.6879 10.3005C19.8869 10.1015 19.9987 9.83162 19.9987 9.55019V1.06113C19.9987 0.779703 19.8869 0.5098 19.6879 0.310799C19.4889 0.111798 19.219 0 18.9376 0H9.74112C9.45969 0 9.18978 0.111798 8.99078 0.310799C8.79178 0.5098 8.67998 0.779703 8.67998 1.06113V9.55019C8.67998 9.83162 8.79178 10.1015 8.99078 10.3005C9.18978 10.4995 9.45969 10.6113 9.74112 10.6113ZM14.3394 9.01963C14.1999 9.01765 14.0669 8.96088 13.969 8.86159C13.8711 8.76231 13.8162 8.62848 13.8163 8.48905C13.8163 8.34962 13.8711 8.21579 13.969 8.11651C14.0669 8.01723 14.2 7.96046 14.3394 7.95849C14.4788 7.96047 14.6118 8.01724 14.7097 8.11653C14.8076 8.21582 14.8625 8.34964 14.8625 8.48907C14.8625 8.6285 14.8076 8.76233 14.7097 8.86161C14.6118 8.9609 14.4788 9.01766 14.3394 9.01963ZM13.2782 2.29912H15.0468C15.4688 2.29958 15.8734 2.46742 16.1718 2.76583C16.4702 3.06423 16.638 3.46882 16.6385 3.89082V4.59824C16.6366 4.82202 16.5881 5.04295 16.4962 5.24698C16.4043 5.45102 16.2709 5.63369 16.1046 5.7834C15.9382 5.9331 15.7426 6.04656 15.53 6.11654C15.3175 6.18653 15.0927 6.21153 14.8699 6.18994C14.9901 7.01479 13.8831 7.1765 13.8088 6.3668L13.8088 5.65937C13.8088 5.51866 13.8647 5.38371 13.9642 5.28421C14.0637 5.18471 14.1986 5.12881 14.3394 5.12881H15.0468C15.1874 5.12865 15.3223 5.07271 15.4218 4.97324C15.5212 4.87377 15.5772 4.73891 15.5773 4.59824V3.89082C15.5772 3.75015 15.5212 3.61529 15.4218 3.51582C15.3223 3.41635 15.1874 3.36041 15.0468 3.36025H13.2782C13.1389 3.35822 13.0059 3.30142 12.908 3.20214C12.8102 3.10286 12.7554 2.96907 12.7554 2.82969C12.7554 2.6903 12.8102 2.55651 12.908 2.45723C13.0059 2.35795 13.1389 2.30116 13.2782 2.29912Z" fill="white"/>
</svg>
