<svg width="24" height="23" viewBox="0 0 24 23" fill="none" xmlns="http://www.w3.org/2000/svg">
<path d="M22.5433 8.29234L15.8167 7.31474L12.8097 1.21866C12.7276 1.05175 12.5925 0.916636 12.4256 0.834508C12.007 0.627861 11.4983 0.800066 11.289 1.21866L8.28204 7.31474L1.55542 8.29234C1.36997 8.31883 1.20041 8.40626 1.07059 8.53872C0.913654 8.70003 0.827172 8.91705 0.830153 9.14209C0.833133 9.36712 0.925332 9.58177 1.08649 9.73887L5.95329 14.4838L4.80348 21.1839C4.77652 21.3398 4.79377 21.5001 4.85327 21.6466C4.91277 21.7932 5.01215 21.9201 5.14013 22.0131C5.26811 22.106 5.41957 22.1613 5.57735 22.1725C5.73512 22.1838 5.89289 22.1506 6.03277 22.0767L12.0494 18.9135L18.066 22.0767C18.2302 22.1642 18.421 22.1933 18.6038 22.1615C19.0648 22.082 19.3747 21.6449 19.2953 21.1839L18.1454 14.4838L23.0122 9.73887C23.1447 9.60905 23.2321 9.43949 23.2586 9.25404C23.3302 8.79041 23.0069 8.36122 22.5433 8.29234Z" fill="#FADB14"/>
</svg>
